# xmcd
#
# Track frame offsets:
#	150
#	24796
#	44589
#	75065
#	96049
#	122658
#	140151
#	162362
#	179018
#	198432
#	217537
#	237651
#	257333
#	275898
#	292380
#
# Disc length: 4159 seconds
#
# Revision: 0
# Processed by: cddbd v1.5.2PL0 Copyright (c) Steve Scherf et al.
# Submitted via: audiograbber 1.83.01
#
DISCID=d9103d0f
DTITLE=Damian Howard - Once in a While
DYEAR=2014
DGENRE=Country
TTITLE0=Once In A While
TTITLE1=Not This Time
TTITLE2=Brand New Start (Jimmy and Rita)
TTITLE3=Keep My Boat Afloat
TTITLE4=Falling On My Sword
TTITLE5=Days Like This
TTITLE6=Comes A Time
TTITLE7=Angela
TTITLE8=Music Will Carry Me Home
TTITLE9=When Darcy Rode The Mule
TTITLE10=Stand Together As One
TTITLE11=This Town
TTITLE12=Let Her Ride
TTITLE13=Road To Your Heart
TTITLE14=Once In A While (edit)
EXTD=
EXTT0=
EXTT1=
EXTT2=
EXTT3=
EXTT4=
EXTT5=
EXTT6=
EXTT7=
EXTT8=
EXTT9=
EXTT10=
EXTT11=
EXTT12=
EXTT13=
EXTT14=
PLAYORDER=
